<svg id="visual" viewBox="0 0 900 675" width="900" height="675" xmlns="http://www.w3.org/2000/svg" xmlns:xlink="http://www.w3.org/1999/xlink" version="1.1"><g stroke-width="1" stroke-linejoin="bevel"><path d="M445 329L462 359L482 323Z" fill="#3d1139" stroke="#3d1139"></path><path d="M462 359L499 331L482 323Z" fill="#23122b" stroke="#23122b"></path><path d="M424 254L411 320L445 329Z" fill="#190f22" stroke="#190f22"></path><path d="M445 329L412 398L462 359Z" fill="#100a19" stroke="#100a19"></path><path d="M462 359L526 356L499 331Z" fill="#361236" stroke="#361236"></path><path d="M499 331L508 290L482 323Z" fill="#44103c" stroke="#44103c"></path><path d="M482 323L489 277L445 329Z" fill="#3d1139" stroke="#3d1139"></path><path d="M526 356L508 290L499 331Z" fill="#29122f" stroke="#29122f"></path><path d="M508 290L489 277L482 323Z" fill="#0a0613" stroke="#0a0613"></path><path d="M508 290L504 277L489 277Z" fill="#150d1d" stroke="#150d1d"></path><path d="M411 320L412 398L445 329Z" fill="#0a0613" stroke="#0a0613"></path><path d="M462 359L524 416L526 356Z" fill="#0a0613" stroke="#0a0613"></path><path d="M411 320L384 339L412 398Z" fill="#1e1127" stroke="#1e1127"></path><path d="M396 245L383 326L411 320Z" fill="#3d1139" stroke="#3d1139"></path><path d="M411 320L383 326L384 339Z" fill="#190f22" stroke="#190f22"></path><path d="M433 419L462 425L462 359Z" fill="#23122b" stroke="#23122b"></path><path d="M412 398L433 419L462 359Z" fill="#190f22" stroke="#190f22"></path><path d="M575 329L531 277L508 290Z" fill="#29122f" stroke="#29122f"></path><path d="M508 290L531 277L504 277Z" fill="#23122b" stroke="#23122b"></path><path d="M504 277L490 251L489 277Z" fill="#150d1d" stroke="#150d1d"></path><path d="M489 277L424 254L445 329Z" fill="#361236" stroke="#361236"></path><path d="M525 266L490 251L504 277Z" fill="#100a19" stroke="#100a19"></path><path d="M531 277L525 266L504 277Z" fill="#3d1139" stroke="#3d1139"></path><path d="M473 241L424 254L489 277Z" fill="#23122b" stroke="#23122b"></path><path d="M462 425L487 428L462 359Z" fill="#44103c" stroke="#44103c"></path><path d="M522 184L473 241L490 251Z" fill="#23122b" stroke="#23122b"></path><path d="M490 251L473 241L489 277Z" fill="#361236" stroke="#361236"></path><path d="M487 428L524 416L462 359Z" fill="#2f1333" stroke="#2f1333"></path><path d="M526 356L575 329L508 290Z" fill="#23122b" stroke="#23122b"></path><path d="M607 381L575 329L526 356Z" fill="#100a19" stroke="#100a19"></path><path d="M531 277L528 246L525 266Z" fill="#1e1127" stroke="#1e1127"></path><path d="M598 288L528 246L531 277Z" fill="#1e1127" stroke="#1e1127"></path><path d="M525 266L528 246L490 251Z" fill="#0a0613" stroke="#0a0613"></path><path d="M403 212L396 245L424 254Z" fill="#3d1139" stroke="#3d1139"></path><path d="M424 254L396 245L411 320Z" fill="#3d1139" stroke="#3d1139"></path><path d="M412 398L426 447L433 419Z" fill="#23122b" stroke="#23122b"></path><path d="M433 419L426 447L462 425Z" fill="#190f22" stroke="#190f22"></path><path d="M462 425L428 477L487 428Z" fill="#1e1127" stroke="#1e1127"></path><path d="M391 462L426 447L412 398Z" fill="#0a0613" stroke="#0a0613"></path><path d="M607 381L582 324L575 329Z" fill="#29122f" stroke="#29122f"></path><path d="M575 329L582 324L531 277Z" fill="#100a19" stroke="#100a19"></path><path d="M334 302L347 321L383 326Z" fill="#3d1139" stroke="#3d1139"></path><path d="M383 326L347 321L384 339Z" fill="#100a19" stroke="#100a19"></path><path d="M384 339L361 429L412 398Z" fill="#100a19" stroke="#100a19"></path><path d="M522 184L433 211L473 241Z" fill="#150d1d" stroke="#150d1d"></path><path d="M473 241L433 211L424 254Z" fill="#2f1333" stroke="#2f1333"></path><path d="M334 302L337 313L347 321Z" fill="#361236" stroke="#361236"></path><path d="M327 359L361 429L384 339Z" fill="#361236" stroke="#361236"></path><path d="M599 448L578 413L524 416Z" fill="#0a0613" stroke="#0a0613"></path><path d="M524 416L578 413L526 356Z" fill="#190f22" stroke="#190f22"></path><path d="M599 448L524 416L536 505Z" fill="#2f1333" stroke="#2f1333"></path><path d="M343 265L334 302L383 326Z" fill="#190f22" stroke="#190f22"></path><path d="M327 359L347 321L315 352Z" fill="#100a19" stroke="#100a19"></path><path d="M327 359L384 339L347 321Z" fill="#0a0613" stroke="#0a0613"></path><path d="M433 211L403 212L424 254Z" fill="#29122f" stroke="#29122f"></path><path d="M396 245L343 265L383 326Z" fill="#23122b" stroke="#23122b"></path><path d="M315 352L347 321L337 313Z" fill="#2f1333" stroke="#2f1333"></path><path d="M634 332L598 288L582 324Z" fill="#100a19" stroke="#100a19"></path><path d="M582 324L598 288L531 277Z" fill="#44103c" stroke="#44103c"></path><path d="M334 256L343 265L396 245Z" fill="#150d1d" stroke="#150d1d"></path><path d="M391 462L406 468L426 447Z" fill="#0a0613" stroke="#0a0613"></path><path d="M426 447L428 477L462 425Z" fill="#1e1127" stroke="#1e1127"></path><path d="M406 468L428 477L426 447Z" fill="#0a0613" stroke="#0a0613"></path><path d="M361 429L391 462L412 398Z" fill="#44103c" stroke="#44103c"></path><path d="M406 468L384 511L428 477Z" fill="#44103c" stroke="#44103c"></path><path d="M578 413L607 381L526 356Z" fill="#100a19" stroke="#100a19"></path><path d="M343 265L323 291L334 302Z" fill="#100a19" stroke="#100a19"></path><path d="M334 302L312 295L337 313Z" fill="#29122f" stroke="#29122f"></path><path d="M304 337L315 352L337 313Z" fill="#2f1333" stroke="#2f1333"></path><path d="M327 359L333 448L361 429Z" fill="#2f1333" stroke="#2f1333"></path><path d="M361 429L384 465L391 462Z" fill="#23122b" stroke="#23122b"></path><path d="M391 462L384 465L406 468Z" fill="#100a19" stroke="#100a19"></path><path d="M343 265L334 256L323 291Z" fill="#3d1139" stroke="#3d1139"></path><path d="M403 212L334 256L396 245Z" fill="#361236" stroke="#361236"></path><path d="M294 261L312 295L323 291Z" fill="#23122b" stroke="#23122b"></path><path d="M323 291L312 295L334 302Z" fill="#361236" stroke="#361236"></path><path d="M598 288L551 202L528 246Z" fill="#1e1127" stroke="#1e1127"></path><path d="M528 246L522 184L490 251Z" fill="#361236" stroke="#361236"></path><path d="M433 211L404 128L403 212Z" fill="#2f1333" stroke="#2f1333"></path><path d="M312 295L304 337L337 313Z" fill="#0a0613" stroke="#0a0613"></path><path d="M315 352L333 448L327 359Z" fill="#2f1333" stroke="#2f1333"></path><path d="M551 202L522 184L528 246Z" fill="#1e1127" stroke="#1e1127"></path><path d="M607 381L634 332L582 324Z" fill="#100a19" stroke="#100a19"></path><path d="M589 194L544 169L551 202Z" fill="#361236" stroke="#361236"></path><path d="M329 468L333 448L298 472Z" fill="#3d1139" stroke="#3d1139"></path><path d="M361 429L333 448L384 465Z" fill="#190f22" stroke="#190f22"></path><path d="M536 505L524 416L487 428Z" fill="#44103c" stroke="#44103c"></path><path d="M578 413L599 448L607 381Z" fill="#150d1d" stroke="#150d1d"></path><path d="M722 402L665 321L634 332Z" fill="#44103c" stroke="#44103c"></path><path d="M544 169L534 170L551 202Z" fill="#23122b" stroke="#23122b"></path><path d="M551 202L534 170L522 184Z" fill="#44103c" stroke="#44103c"></path><path d="M522 184L517 151L433 211Z" fill="#3d1139" stroke="#3d1139"></path><path d="M521 511L536 505L487 428Z" fill="#150d1d" stroke="#150d1d"></path><path d="M507 547L521 511L428 477Z" fill="#150d1d" stroke="#150d1d"></path><path d="M428 477L521 511L487 428Z" fill="#29122f" stroke="#29122f"></path><path d="M384 511L406 468L384 465Z" fill="#100a19" stroke="#100a19"></path><path d="M589 194L551 202L598 288Z" fill="#150d1d" stroke="#150d1d"></path><path d="M312 295L282 305L304 337Z" fill="#361236" stroke="#361236"></path><path d="M312 482L329 468L298 472Z" fill="#100a19" stroke="#100a19"></path><path d="M286 268L282 305L312 295Z" fill="#29122f" stroke="#29122f"></path><path d="M305 230L294 261L334 256Z" fill="#190f22" stroke="#190f22"></path><path d="M334 256L294 261L323 291Z" fill="#100a19" stroke="#100a19"></path><path d="M333 448L315 352L298 472Z" fill="#100a19" stroke="#100a19"></path><path d="M333 448L329 468L384 465Z" fill="#361236" stroke="#361236"></path><path d="M608 185L589 194L648 200Z" fill="#29122f" stroke="#29122f"></path><path d="M361 521L384 511L384 465Z" fill="#29122f" stroke="#29122f"></path><path d="M294 261L286 268L312 295Z" fill="#150d1d" stroke="#150d1d"></path><path d="M403 212L305 230L334 256Z" fill="#100a19" stroke="#100a19"></path><path d="M294 261L265 254L286 268Z" fill="#3d1139" stroke="#3d1139"></path><path d="M360 111L305 230L403 212Z" fill="#361236" stroke="#361236"></path><path d="M544 169L517 151L534 170Z" fill="#190f22" stroke="#190f22"></path><path d="M534 170L517 151L522 184Z" fill="#150d1d" stroke="#150d1d"></path><path d="M547 107L517 151L544 169Z" fill="#100a19" stroke="#100a19"></path><path d="M722 402L634 332L607 381Z" fill="#1e1127" stroke="#1e1127"></path><path d="M634 332L665 321L598 288Z" fill="#361236" stroke="#361236"></path><path d="M581 536L577 507L536 505Z" fill="#3d1139" stroke="#3d1139"></path><path d="M536 505L577 507L599 448Z" fill="#190f22" stroke="#190f22"></path><path d="M599 448L689 459L607 381Z" fill="#100a19" stroke="#100a19"></path><path d="M577 507L611 479L599 448Z" fill="#361236" stroke="#361236"></path><path d="M661 221L589 194L598 288Z" fill="#44103c" stroke="#44103c"></path><path d="M589 194L608 185L544 169Z" fill="#0a0613" stroke="#0a0613"></path><path d="M298 472L189 382L262 482Z" fill="#29122f" stroke="#29122f"></path><path d="M329 468L361 521L384 465Z" fill="#3d1139" stroke="#3d1139"></path><path d="M312 482L361 521L329 468Z" fill="#44103c" stroke="#44103c"></path><path d="M449 582L507 547L428 477Z" fill="#23122b" stroke="#23122b"></path><path d="M449 582L428 477L384 511Z" fill="#3d1139" stroke="#3d1139"></path><path d="M521 511L526 565L536 505Z" fill="#3d1139" stroke="#3d1139"></path><path d="M298 472L315 352L189 382Z" fill="#2f1333" stroke="#2f1333"></path><path d="M312 482L303 491L361 521Z" fill="#190f22" stroke="#190f22"></path><path d="M305 230L265 254L294 261Z" fill="#190f22" stroke="#190f22"></path><path d="M286 268L265 254L282 305Z" fill="#29122f" stroke="#29122f"></path><path d="M262 482L303 491L298 472Z" fill="#361236" stroke="#361236"></path><path d="M517 151L404 128L433 211Z" fill="#2f1333" stroke="#2f1333"></path><path d="M305 230L259 202L265 254Z" fill="#2f1333" stroke="#2f1333"></path><path d="M298 472L303 491L312 482Z" fill="#361236" stroke="#361236"></path><path d="M692 275L661 221L598 288Z" fill="#3d1139" stroke="#3d1139"></path><path d="M661 221L648 200L589 194Z" fill="#29122f" stroke="#29122f"></path><path d="M538 570L581 536L536 505Z" fill="#23122b" stroke="#23122b"></path><path d="M577 507L581 536L611 479Z" fill="#0a0613" stroke="#0a0613"></path><path d="M717 294L692 275L665 321Z" fill="#29122f" stroke="#29122f"></path><path d="M665 321L692 275L598 288Z" fill="#0a0613" stroke="#0a0613"></path><path d="M500 596L526 565L507 547Z" fill="#29122f" stroke="#29122f"></path><path d="M507 547L526 565L521 511Z" fill="#29122f" stroke="#29122f"></path><path d="M581 536L651 487L611 479Z" fill="#3d1139" stroke="#3d1139"></path><path d="M611 479L651 487L599 448Z" fill="#2f1333" stroke="#2f1333"></path><path d="M189 382L304 337L282 305Z" fill="#29122f" stroke="#29122f"></path><path d="M262 482L294 506L303 491Z" fill="#44103c" stroke="#44103c"></path><path d="M303 491L294 506L361 521Z" fill="#150d1d" stroke="#150d1d"></path><path d="M500 596L538 570L526 565Z" fill="#3d1139" stroke="#3d1139"></path><path d="M547 107L475 95L517 151Z" fill="#150d1d" stroke="#150d1d"></path><path d="M517 151L475 95L404 128Z" fill="#23122b" stroke="#23122b"></path><path d="M547 107L544 169L608 185Z" fill="#29122f" stroke="#29122f"></path><path d="M265 254L226 294L282 305Z" fill="#23122b" stroke="#23122b"></path><path d="M449 582L384 511L370 595Z" fill="#0a0613" stroke="#0a0613"></path><path d="M526 565L538 570L536 505Z" fill="#361236" stroke="#361236"></path><path d="M581 536L663 497L651 487Z" fill="#2f1333" stroke="#2f1333"></path><path d="M654 150L547 107L608 185Z" fill="#190f22" stroke="#190f22"></path><path d="M370 595L384 511L361 521Z" fill="#23122b" stroke="#23122b"></path><path d="M256 164L259 202L305 230Z" fill="#23122b" stroke="#23122b"></path><path d="M265 254L215 219L226 294Z" fill="#2f1333" stroke="#2f1333"></path><path d="M408 83L404 56L394 66Z" fill="#23122b" stroke="#23122b"></path><path d="M475 95L446 90L404 128Z" fill="#2f1333" stroke="#2f1333"></path><path d="M404 128L360 111L403 212Z" fill="#150d1d" stroke="#150d1d"></path><path d="M237 489L262 482L175 415Z" fill="#150d1d" stroke="#150d1d"></path><path d="M408 83L360 111L404 128Z" fill="#23122b" stroke="#23122b"></path><path d="M446 90L417 89L404 128Z" fill="#23122b" stroke="#23122b"></path><path d="M586 564L663 497L581 536Z" fill="#0a0613" stroke="#0a0613"></path><path d="M651 487L689 459L599 448Z" fill="#150d1d" stroke="#150d1d"></path><path d="M686 477L689 459L651 487Z" fill="#3d1139" stroke="#3d1139"></path><path d="M746 316L717 294L665 321Z" fill="#44103c" stroke="#44103c"></path><path d="M692 275L709 251L661 221Z" fill="#0a0613" stroke="#0a0613"></path><path d="M661 221L687 201L648 200Z" fill="#100a19" stroke="#100a19"></path><path d="M583 571L586 564L538 570Z" fill="#100a19" stroke="#100a19"></path><path d="M538 570L586 564L581 536Z" fill="#100a19" stroke="#100a19"></path><path d="M717 294L709 251L692 275Z" fill="#361236" stroke="#361236"></path><path d="M648 200L654 150L608 185Z" fill="#361236" stroke="#361236"></path><path d="M713 226L687 201L661 221Z" fill="#23122b" stroke="#23122b"></path><path d="M404 56L408 83L417 89Z" fill="#0a0613" stroke="#0a0613"></path><path d="M417 89L408 83L404 128Z" fill="#361236" stroke="#361236"></path><path d="M404 56L446 90L421 0Z" fill="#190f22" stroke="#190f22"></path><path d="M449 582L500 596L507 547Z" fill="#23122b" stroke="#23122b"></path><path d="M663 497L686 477L651 487Z" fill="#100a19" stroke="#100a19"></path><path d="M717 421L722 402L607 381Z" fill="#44103c" stroke="#44103c"></path><path d="M707 469L686 477L690 515Z" fill="#23122b" stroke="#23122b"></path><path d="M627 617L583 571L568 647Z" fill="#23122b" stroke="#23122b"></path><path d="M651 597L690 515L663 497Z" fill="#190f22" stroke="#190f22"></path><path d="M243 176L233 216L259 202Z" fill="#23122b" stroke="#23122b"></path><path d="M259 202L233 216L265 254Z" fill="#1e1127" stroke="#1e1127"></path><path d="M717 421L607 381L689 459Z" fill="#2f1333" stroke="#2f1333"></path><path d="M707 469L717 421L689 459Z" fill="#190f22" stroke="#190f22"></path><path d="M687 201L654 150L648 200Z" fill="#361236" stroke="#361236"></path><path d="M713 226L694 195L687 201Z" fill="#0a0613" stroke="#0a0613"></path><path d="M687 201L694 195L654 150Z" fill="#3d1139" stroke="#3d1139"></path><path d="M748 214L713 226L709 251Z" fill="#2f1333" stroke="#2f1333"></path><path d="M709 251L713 226L661 221Z" fill="#150d1d" stroke="#150d1d"></path><path d="M290 128L305 230L360 111Z" fill="#150d1d" stroke="#150d1d"></path><path d="M290 128L256 164L305 230Z" fill="#29122f" stroke="#29122f"></path><path d="M573 52L533 74L547 107Z" fill="#361236" stroke="#361236"></path><path d="M547 107L533 74L475 95Z" fill="#190f22" stroke="#190f22"></path><path d="M322 98L290 128L360 111Z" fill="#29122f" stroke="#29122f"></path><path d="M189 382L315 352L304 337Z" fill="#100a19" stroke="#100a19"></path><path d="M262 482L237 489L294 506Z" fill="#190f22" stroke="#190f22"></path><path d="M338 594L370 595L361 521Z" fill="#29122f" stroke="#29122f"></path><path d="M256 164L243 176L259 202Z" fill="#44103c" stroke="#44103c"></path><path d="M223 179L243 176L207 146Z" fill="#44103c" stroke="#44103c"></path><path d="M338 594L361 521L294 506Z" fill="#361236" stroke="#361236"></path><path d="M449 582L427 647L500 596Z" fill="#23122b" stroke="#23122b"></path><path d="M690 515L686 477L663 497Z" fill="#150d1d" stroke="#150d1d"></path><path d="M686 477L707 469L689 459Z" fill="#3d1139" stroke="#3d1139"></path><path d="M736 398L738 388L722 402Z" fill="#100a19" stroke="#100a19"></path><path d="M223 179L215 219L233 216Z" fill="#361236" stroke="#361236"></path><path d="M233 216L215 219L265 254Z" fill="#1e1127" stroke="#1e1127"></path><path d="M226 294L189 382L282 305Z" fill="#361236" stroke="#361236"></path><path d="M736 398L722 402L743 402Z" fill="#29122f" stroke="#29122f"></path><path d="M722 402L738 388L665 321Z" fill="#0a0613" stroke="#0a0613"></path><path d="M717 294L769 291L709 251Z" fill="#0a0613" stroke="#0a0613"></path><path d="M743 402L722 402L717 421Z" fill="#3d1139" stroke="#3d1139"></path><path d="M324 96L322 98L360 111Z" fill="#1e1127" stroke="#1e1127"></path><path d="M394 66L324 96L360 111Z" fill="#190f22" stroke="#190f22"></path><path d="M189 188L223 179L207 146Z" fill="#29122f" stroke="#29122f"></path><path d="M122 319L189 382L226 294Z" fill="#23122b" stroke="#23122b"></path><path d="M396 611L409 612L449 582Z" fill="#361236" stroke="#361236"></path><path d="M404 56L417 89L446 90Z" fill="#2f1333" stroke="#2f1333"></path><path d="M408 83L394 66L360 111Z" fill="#100a19" stroke="#100a19"></path><path d="M738 388L746 316L665 321Z" fill="#29122f" stroke="#29122f"></path><path d="M370 595L396 611L449 582Z" fill="#2f1333" stroke="#2f1333"></path><path d="M736 398L743 402L738 388Z" fill="#44103c" stroke="#44103c"></path><path d="M738 388L752 373L746 316Z" fill="#1e1127" stroke="#1e1127"></path><path d="M764 401L743 402L717 421Z" fill="#100a19" stroke="#100a19"></path><path d="M651 597L663 497L586 564Z" fill="#2f1333" stroke="#2f1333"></path><path d="M759 499L764 401L717 421Z" fill="#23122b" stroke="#23122b"></path><path d="M266 580L338 594L294 506Z" fill="#2f1333" stroke="#2f1333"></path><path d="M370 595L368 675L396 611Z" fill="#2f1333" stroke="#2f1333"></path><path d="M223 179L204 218L215 219Z" fill="#150d1d" stroke="#150d1d"></path><path d="M215 219L204 218L226 294Z" fill="#2f1333" stroke="#2f1333"></path><path d="M493 0L446 90L475 95Z" fill="#3d1139" stroke="#3d1139"></path><path d="M394 66L369 0L324 96Z" fill="#190f22" stroke="#190f22"></path><path d="M757 374L752 373L738 388Z" fill="#2f1333" stroke="#2f1333"></path><path d="M114 360L182 396L189 382Z" fill="#3d1139" stroke="#3d1139"></path><path d="M189 382L182 396L262 482Z" fill="#190f22" stroke="#190f22"></path><path d="M243 176L223 179L233 216Z" fill="#100a19" stroke="#100a19"></path><path d="M207 146L243 176L256 164Z" fill="#190f22" stroke="#190f22"></path><path d="M256 164L290 128L207 146Z" fill="#0a0613" stroke="#0a0613"></path><path d="M763 370L757 374L764 401Z" fill="#361236" stroke="#361236"></path><path d="M764 401L757 374L738 388Z" fill="#3d1139" stroke="#3d1139"></path><path d="M752 373L769 343L746 316Z" fill="#150d1d" stroke="#150d1d"></path><path d="M114 360L178 405L182 396Z" fill="#2f1333" stroke="#2f1333"></path><path d="M182 396L178 405L262 482Z" fill="#3d1139" stroke="#3d1139"></path><path d="M757 374L763 370L752 373Z" fill="#2f1333" stroke="#2f1333"></path><path d="M764 401L738 388L743 402Z" fill="#361236" stroke="#361236"></path><path d="M694 195L694 132L654 150Z" fill="#44103c" stroke="#44103c"></path><path d="M589 58L573 52L547 107Z" fill="#2f1333" stroke="#2f1333"></path><path d="M713 226L726 188L694 195Z" fill="#1e1127" stroke="#1e1127"></path><path d="M748 214L726 188L713 226Z" fill="#1e1127" stroke="#1e1127"></path><path d="M767 300L717 294L746 316Z" fill="#1e1127" stroke="#1e1127"></path><path d="M178 405L175 415L262 482Z" fill="#44103c" stroke="#44103c"></path><path d="M171 429L175 415L95 428Z" fill="#190f22" stroke="#190f22"></path><path d="M763 370L769 343L752 373Z" fill="#44103c" stroke="#44103c"></path><path d="M773 321L767 300L746 316Z" fill="#0a0613" stroke="#0a0613"></path><path d="M589 58L547 107L625 59Z" fill="#361236" stroke="#361236"></path><path d="M533 74L493 0L475 95Z" fill="#2f1333" stroke="#2f1333"></path><path d="M759 499L717 421L707 469Z" fill="#150d1d" stroke="#150d1d"></path><path d="M822 369L789 320L769 343Z" fill="#29122f" stroke="#29122f"></path><path d="M625 59L547 107L654 150Z" fill="#1e1127" stroke="#1e1127"></path><path d="M206 517L259 563L237 489Z" fill="#0a0613" stroke="#0a0613"></path><path d="M237 489L259 563L294 506Z" fill="#0a0613" stroke="#0a0613"></path><path d="M789 320L769 291L767 300Z" fill="#2f1333" stroke="#2f1333"></path><path d="M767 300L769 291L717 294Z" fill="#29122f" stroke="#29122f"></path><path d="M726 188L694 132L694 195Z" fill="#0a0613" stroke="#0a0613"></path><path d="M789 320L773 321L769 343Z" fill="#361236" stroke="#361236"></path><path d="M769 343L773 321L746 316Z" fill="#29122f" stroke="#29122f"></path><path d="M160 450L171 429L95 428Z" fill="#23122b" stroke="#23122b"></path><path d="M175 415L171 429L237 489Z" fill="#190f22" stroke="#190f22"></path><path d="M779 254L748 214L709 251Z" fill="#150d1d" stroke="#150d1d"></path><path d="M720 124L700 108L694 132Z" fill="#190f22" stroke="#190f22"></path><path d="M189 188L184 208L204 218Z" fill="#150d1d" stroke="#150d1d"></path><path d="M119 312L122 319L119 281Z" fill="#1e1127" stroke="#1e1127"></path><path d="M189 188L204 218L223 179Z" fill="#1e1127" stroke="#1e1127"></path><path d="M323 646L370 595L338 594Z" fill="#29122f" stroke="#29122f"></path><path d="M406 675L427 647L405 675Z" fill="#361236" stroke="#361236"></path><path d="M396 611L427 647L409 612Z" fill="#1e1127" stroke="#1e1127"></path><path d="M409 612L427 647L449 582Z" fill="#23122b" stroke="#23122b"></path><path d="M627 617L586 564L583 571Z" fill="#2f1333" stroke="#2f1333"></path><path d="M258 599L266 580L232 589Z" fill="#23122b" stroke="#23122b"></path><path d="M259 563L266 580L294 506Z" fill="#100a19" stroke="#100a19"></path><path d="M207 146L290 128L179 89Z" fill="#2f1333" stroke="#2f1333"></path><path d="M183 499L206 517L237 489Z" fill="#361236" stroke="#361236"></path><path d="M583 571L538 570L568 647Z" fill="#3d1139" stroke="#3d1139"></path><path d="M627 617L651 597L586 564Z" fill="#2f1333" stroke="#2f1333"></path><path d="M690 515L730 525L707 469Z" fill="#150d1d" stroke="#150d1d"></path><path d="M258 599L286 603L266 580Z" fill="#0a0613" stroke="#0a0613"></path><path d="M266 580L286 603L338 594Z" fill="#1e1127" stroke="#1e1127"></path><path d="M700 108L625 59L654 150Z" fill="#23122b" stroke="#23122b"></path><path d="M597 0L558 24L573 52Z" fill="#23122b" stroke="#23122b"></path><path d="M260 6L322 98L324 96Z" fill="#150d1d" stroke="#150d1d"></path><path d="M260 6L290 128L322 98Z" fill="#29122f" stroke="#29122f"></path><path d="M568 647L538 570L500 596Z" fill="#44103c" stroke="#44103c"></path><path d="M822 369L769 343L763 370Z" fill="#361236" stroke="#361236"></path><path d="M773 321L789 320L767 300Z" fill="#3d1139" stroke="#3d1139"></path><path d="M769 291L779 254L709 251Z" fill="#150d1d" stroke="#150d1d"></path><path d="M723 562L730 525L690 515Z" fill="#100a19" stroke="#100a19"></path><path d="M764 401L822 369L763 370Z" fill="#100a19" stroke="#100a19"></path><path d="M816 269L779 254L769 291Z" fill="#3d1139" stroke="#3d1139"></path><path d="M720 124L694 132L726 188Z" fill="#3d1139" stroke="#3d1139"></path><path d="M171 429L183 499L237 489Z" fill="#3d1139" stroke="#3d1139"></path><path d="M232 589L266 580L259 563Z" fill="#3d1139" stroke="#3d1139"></path><path d="M114 360L175 415L178 405Z" fill="#150d1d" stroke="#150d1d"></path><path d="M171 429L160 450L183 499Z" fill="#29122f" stroke="#29122f"></path><path d="M510 675L568 647L500 596Z" fill="#3d1139" stroke="#3d1139"></path><path d="M597 0L573 52L589 58Z" fill="#150d1d" stroke="#150d1d"></path><path d="M573 52L558 24L533 74Z" fill="#190f22" stroke="#190f22"></path><path d="M720 124L785 163L722 122Z" fill="#361236" stroke="#361236"></path><path d="M694 132L700 108L654 150Z" fill="#190f22" stroke="#190f22"></path><path d="M427 647L487 666L500 596Z" fill="#150d1d" stroke="#150d1d"></path><path d="M406 675L487 666L427 647Z" fill="#2f1333" stroke="#2f1333"></path><path d="M720 124L726 188L785 163Z" fill="#0a0613" stroke="#0a0613"></path><path d="M723 562L743 522L730 525Z" fill="#29122f" stroke="#29122f"></path><path d="M730 525L759 499L707 469Z" fill="#2f1333" stroke="#2f1333"></path><path d="M723 562L690 515L651 597Z" fill="#190f22" stroke="#190f22"></path><path d="M232 589L259 563L206 517Z" fill="#0a0613" stroke="#0a0613"></path><path d="M286 603L323 646L338 594Z" fill="#1e1127" stroke="#1e1127"></path><path d="M723 106L722 122L810 101Z" fill="#2f1333" stroke="#2f1333"></path><path d="M720 124L722 122L700 108Z" fill="#3d1139" stroke="#3d1139"></path><path d="M700 108L716 81L625 59Z" fill="#3d1139" stroke="#3d1139"></path><path d="M743 522L759 499L730 525Z" fill="#361236" stroke="#361236"></path><path d="M502 0L493 0L533 74Z" fill="#0a0613" stroke="#0a0613"></path><path d="M404 56L369 0L394 66Z" fill="#29122f" stroke="#29122f"></path><path d="M512 0L502 0L533 74Z" fill="#23122b" stroke="#23122b"></path><path d="M262 613L279 621L286 603Z" fill="#1e1127" stroke="#1e1127"></path><path d="M279 621L323 646L286 603Z" fill="#44103c" stroke="#44103c"></path><path d="M493 0L421 0L446 90Z" fill="#3d1139" stroke="#3d1139"></path><path d="M558 24L512 0L533 74Z" fill="#23122b" stroke="#23122b"></path><path d="M406 675L510 675L487 666Z" fill="#100a19" stroke="#100a19"></path><path d="M487 666L510 675L500 596Z" fill="#1e1127" stroke="#1e1127"></path><path d="M752 576L723 562L694 648Z" fill="#2f1333" stroke="#2f1333"></path><path d="M743 522L798 560L759 499Z" fill="#190f22" stroke="#190f22"></path><path d="M258 599L262 613L286 603Z" fill="#361236" stroke="#361236"></path><path d="M279 621L268 675L323 646Z" fill="#0a0613" stroke="#0a0613"></path><path d="M232 589L262 613L258 599Z" fill="#29122f" stroke="#29122f"></path><path d="M189 188L151 201L184 208Z" fill="#1e1127" stroke="#1e1127"></path><path d="M122 319L226 294L119 281Z" fill="#150d1d" stroke="#150d1d"></path><path d="M148 151L151 201L189 188Z" fill="#361236" stroke="#361236"></path><path d="M405 675L427 647L388 675Z" fill="#0a0613" stroke="#0a0613"></path><path d="M388 675L427 647L396 611Z" fill="#150d1d" stroke="#150d1d"></path><path d="M154 584L232 589L206 517Z" fill="#44103c" stroke="#44103c"></path><path d="M226 294L204 218L119 281Z" fill="#23122b" stroke="#23122b"></path><path d="M590 662L630 640L627 617Z" fill="#190f22" stroke="#190f22"></path><path d="M627 617L630 640L651 597Z" fill="#2f1333" stroke="#2f1333"></path><path d="M590 662L627 617L568 647Z" fill="#23122b" stroke="#23122b"></path><path d="M421 0L392 0L404 56Z" fill="#44103c" stroke="#44103c"></path><path d="M782 178L726 188L748 214Z" fill="#150d1d" stroke="#150d1d"></path><path d="M722 122L723 106L700 108Z" fill="#29122f" stroke="#29122f"></path><path d="M577 -36L536 -17L558 24Z" fill="#1e1127" stroke="#1e1127"></path><path d="M558 24L536 -17L512 0Z" fill="#0a0613" stroke="#0a0613"></path><path d="M392 0L387 0L404 56Z" fill="#23122b" stroke="#23122b"></path><path d="M368 675L388 675L396 611Z" fill="#44103c" stroke="#44103c"></path><path d="M119 281L204 218L184 208Z" fill="#190f22" stroke="#190f22"></path><path d="M122 319L114 360L189 382Z" fill="#29122f" stroke="#29122f"></path><path d="M510 675L547 675L568 647Z" fill="#361236" stroke="#361236"></path><path d="M547 675L590 662L568 647Z" fill="#2f1333" stroke="#2f1333"></path><path d="M387 0L369 0L404 56Z" fill="#3d1139" stroke="#3d1139"></path><path d="M114 241L119 281L184 208Z" fill="#190f22" stroke="#190f22"></path><path d="M268 675L368 675L323 646Z" fill="#1e1127" stroke="#1e1127"></path><path d="M323 646L368 675L370 595Z" fill="#3d1139" stroke="#3d1139"></path><path d="M87 423L31 418L85 424Z" fill="#3d1139" stroke="#3d1139"></path><path d="M119 312L114 360L122 319Z" fill="#1e1127" stroke="#1e1127"></path><path d="M95 483L130 539L183 499Z" fill="#2f1333" stroke="#2f1333"></path><path d="M818 227L782 178L748 214Z" fill="#361236" stroke="#361236"></path><path d="M818 227L748 214L779 254Z" fill="#361236" stroke="#361236"></path><path d="M900 316L816 269L789 320Z" fill="#0a0613" stroke="#0a0613"></path><path d="M789 320L816 269L769 291Z" fill="#361236" stroke="#361236"></path><path d="M853 469L822 369L764 401Z" fill="#150d1d" stroke="#150d1d"></path><path d="M728 28L716 81L787 64Z" fill="#190f22" stroke="#190f22"></path><path d="M723 106L716 81L700 108Z" fill="#190f22" stroke="#190f22"></path><path d="M104 217L127 218L151 201Z" fill="#2f1333" stroke="#2f1333"></path><path d="M151 201L127 218L184 208Z" fill="#44103c" stroke="#44103c"></path><path d="M148 151L189 188L207 146Z" fill="#29122f" stroke="#29122f"></path><path d="M597 0L589 58L625 59Z" fill="#44103c" stroke="#44103c"></path><path d="M512 0L536 -17L502 0Z" fill="#0a0613" stroke="#0a0613"></path><path d="M502 0L536 -17L493 0Z" fill="#0a0613" stroke="#0a0613"></path><path d="M493 0L536 -17L421 0Z" fill="#100a19" stroke="#100a19"></path><path d="M421 0L315 -23L392 0Z" fill="#1e1127" stroke="#1e1127"></path><path d="M392 0L315 -23L387 0Z" fill="#1e1127" stroke="#1e1127"></path><path d="M387 0L315 -23L369 0Z" fill="#0a0613" stroke="#0a0613"></path><path d="M627 0L597 0L625 59Z" fill="#100a19" stroke="#100a19"></path><path d="M782 178L785 163L726 188Z" fill="#23122b" stroke="#23122b"></path><path d="M818 227L785 163L782 178Z" fill="#23122b" stroke="#23122b"></path><path d="M127 218L114 241L184 208Z" fill="#150d1d" stroke="#150d1d"></path><path d="M119 281L34 289L119 312Z" fill="#2f1333" stroke="#2f1333"></path><path d="M161 109L148 151L207 146Z" fill="#361236" stroke="#361236"></path><path d="M127 218L104 217L114 241Z" fill="#0a0613" stroke="#0a0613"></path><path d="M863 250L818 227L816 269Z" fill="#23122b" stroke="#23122b"></path><path d="M816 269L818 227L779 254Z" fill="#150d1d" stroke="#150d1d"></path><path d="M547 675L617 675L590 662Z" fill="#190f22" stroke="#190f22"></path><path d="M590 662L617 675L630 640Z" fill="#29122f" stroke="#29122f"></path><path d="M694 648L723 562L651 597Z" fill="#2f1333" stroke="#2f1333"></path><path d="M723 562L752 576L743 522Z" fill="#1e1127" stroke="#1e1127"></path><path d="M759 499L853 469L764 401Z" fill="#1e1127" stroke="#1e1127"></path><path d="M694 648L651 597L630 640Z" fill="#44103c" stroke="#44103c"></path><path d="M315 -23L304 0L369 0Z" fill="#2f1333" stroke="#2f1333"></path><path d="M369 0L304 0L324 96Z" fill="#2f1333" stroke="#2f1333"></path><path d="M633 2L627 0L625 59Z" fill="#2f1333" stroke="#2f1333"></path><path d="M597 0L577 -36L558 24Z" fill="#2f1333" stroke="#2f1333"></path><path d="M721 23L633 2L625 59Z" fill="#150d1d" stroke="#150d1d"></path><path d="M260 6L179 89L290 128Z" fill="#2f1333" stroke="#2f1333"></path><path d="M179 89L161 109L207 146Z" fill="#190f22" stroke="#190f22"></path><path d="M148 151L104 217L151 201Z" fill="#100a19" stroke="#100a19"></path><path d="M83 206L104 217L148 151Z" fill="#29122f" stroke="#29122f"></path><path d="M114 241L56 255L119 281Z" fill="#1e1127" stroke="#1e1127"></path><path d="M617 675L642 675L630 640Z" fill="#2f1333" stroke="#2f1333"></path><path d="M87 423L95 428L114 360Z" fill="#1e1127" stroke="#1e1127"></path><path d="M114 360L95 428L175 415Z" fill="#190f22" stroke="#190f22"></path><path d="M183 499L130 539L206 517Z" fill="#29122f" stroke="#29122f"></path><path d="M179 89L161 104L161 109Z" fill="#190f22" stroke="#190f22"></path><path d="M161 109L106 112L148 151Z" fill="#100a19" stroke="#100a19"></path><path d="M676 665L694 648L630 640Z" fill="#1e1127" stroke="#1e1127"></path><path d="M85 424L31 418L49 430Z" fill="#44103c" stroke="#44103c"></path><path d="M95 483L183 499L160 450Z" fill="#44103c" stroke="#44103c"></path><path d="M642 675L676 665L630 640Z" fill="#3d1139" stroke="#3d1139"></path><path d="M629 -20L577 -36L597 0Z" fill="#150d1d" stroke="#150d1d"></path><path d="M536 -17L577 -36L421 0Z" fill="#361236" stroke="#361236"></path><path d="M629 -20L597 0L627 0Z" fill="#0a0613" stroke="#0a0613"></path><path d="M304 0L260 6L324 96Z" fill="#190f22" stroke="#190f22"></path><path d="M179 89L167 46L161 104Z" fill="#150d1d" stroke="#150d1d"></path><path d="M29 328L114 360L119 312Z" fill="#23122b" stroke="#23122b"></path><path d="M87 423L85 424L95 428Z" fill="#2f1333" stroke="#2f1333"></path><path d="M577 -36L315 -23L421 0Z" fill="#150d1d" stroke="#150d1d"></path><path d="M304 0L315 -23L260 6Z" fill="#1e1127" stroke="#1e1127"></path><path d="M221 675L268 675L262 613Z" fill="#3d1139" stroke="#3d1139"></path><path d="M262 613L268 675L279 621Z" fill="#100a19" stroke="#100a19"></path><path d="M221 675L262 613L232 589Z" fill="#23122b" stroke="#23122b"></path><path d="M95 483L160 450L95 428Z" fill="#100a19" stroke="#100a19"></path><path d="M708 0L629 -20L633 2Z" fill="#23122b" stroke="#23122b"></path><path d="M633 2L629 -20L627 0Z" fill="#23122b" stroke="#23122b"></path><path d="M642 675L672 675L676 665Z" fill="#29122f" stroke="#29122f"></path><path d="M676 665L691 675L694 648Z" fill="#1e1127" stroke="#1e1127"></path><path d="M130 539L154 584L206 517Z" fill="#29122f" stroke="#29122f"></path><path d="M69 453L95 483L95 428Z" fill="#2f1333" stroke="#2f1333"></path><path d="M130 539L149 600L154 584Z" fill="#361236" stroke="#361236"></path><path d="M827 601L798 560L752 576Z" fill="#23122b" stroke="#23122b"></path><path d="M752 576L798 560L743 522Z" fill="#0a0613" stroke="#0a0613"></path><path d="M715 658L752 576L694 648Z" fill="#2f1333" stroke="#2f1333"></path><path d="M61 164L83 206L148 151Z" fill="#2f1333" stroke="#2f1333"></path><path d="M104 217L56 255L114 241Z" fill="#361236" stroke="#361236"></path><path d="M716 81L721 23L625 59Z" fill="#23122b" stroke="#23122b"></path><path d="M728 28L721 23L716 81Z" fill="#100a19" stroke="#100a19"></path><path d="M716 81L723 106L787 64Z" fill="#150d1d" stroke="#150d1d"></path><path d="M810 101L722 122L785 163Z" fill="#0a0613" stroke="#0a0613"></path><path d="M672 675L691 675L676 665Z" fill="#1e1127" stroke="#1e1127"></path><path d="M691 675L715 658L694 648Z" fill="#361236" stroke="#361236"></path><path d="M900 316L863 250L816 269Z" fill="#1e1127" stroke="#1e1127"></path><path d="M898 151L810 101L785 163Z" fill="#29122f" stroke="#29122f"></path><path d="M900 316L789 320L822 369Z" fill="#23122b" stroke="#23122b"></path><path d="M798 560L832 515L759 499Z" fill="#3d1139" stroke="#3d1139"></path><path d="M832 515L853 469L759 499Z" fill="#44103c" stroke="#44103c"></path><path d="M65 562L149 600L130 539Z" fill="#100a19" stroke="#100a19"></path><path d="M154 584L149 600L232 589Z" fill="#361236" stroke="#361236"></path><path d="M868 526L837 514L832 515Z" fill="#1e1127" stroke="#1e1127"></path><path d="M832 515L837 514L853 469Z" fill="#0a0613" stroke="#0a0613"></path><path d="M868 526L832 515L798 560Z" fill="#29122f" stroke="#29122f"></path><path d="M85 424L69 453L95 428Z" fill="#150d1d" stroke="#150d1d"></path><path d="M95 483L73 526L130 539Z" fill="#29122f" stroke="#29122f"></path><path d="M49 430L69 453L85 424Z" fill="#44103c" stroke="#44103c"></path><path d="M721 0L708 0L721 23Z" fill="#150d1d" stroke="#150d1d"></path><path d="M721 23L708 0L633 2Z" fill="#2f1333" stroke="#2f1333"></path><path d="M629 -20L799 0L577 -36Z" fill="#44103c" stroke="#44103c"></path><path d="M211 674L221 675L232 589Z" fill="#23122b" stroke="#23122b"></path><path d="M207 0L167 46L179 89Z" fill="#361236" stroke="#361236"></path><path d="M161 104L106 112L161 109Z" fill="#100a19" stroke="#100a19"></path><path d="M207 0L179 89L260 6Z" fill="#150d1d" stroke="#150d1d"></path><path d="M0 244L56 255L0 226Z" fill="#29122f" stroke="#29122f"></path><path d="M83 206L56 255L104 217Z" fill="#361236" stroke="#361236"></path><path d="M900 178L785 163L818 227Z" fill="#2f1333" stroke="#2f1333"></path><path d="M728 28L721 0L721 23Z" fill="#1e1127" stroke="#1e1127"></path><path d="M211 674L228 685L221 675Z" fill="#44103c" stroke="#44103c"></path><path d="M221 675L228 685L268 675Z" fill="#190f22" stroke="#190f22"></path><path d="M268 675L228 685L368 675Z" fill="#190f22" stroke="#190f22"></path><path d="M368 675L228 685L388 675Z" fill="#361236" stroke="#361236"></path><path d="M388 675L228 685L405 675Z" fill="#150d1d" stroke="#150d1d"></path><path d="M405 675L228 685L406 675Z" fill="#0a0613" stroke="#0a0613"></path><path d="M406 675L228 685L510 675Z" fill="#1e1127" stroke="#1e1127"></path><path d="M510 675L228 685L547 675Z" fill="#3d1139" stroke="#3d1139"></path><path d="M547 675L900 684L617 675Z" fill="#190f22" stroke="#190f22"></path><path d="M617 675L900 684L642 675Z" fill="#23122b" stroke="#23122b"></path><path d="M642 675L900 684L672 675Z" fill="#1e1127" stroke="#1e1127"></path><path d="M672 675L900 684L691 675Z" fill="#23122b" stroke="#23122b"></path><path d="M183 675L211 674L232 589Z" fill="#0a0613" stroke="#0a0613"></path><path d="M810 101L787 64L723 106Z" fill="#3d1139" stroke="#3d1139"></path><path d="M799 0L721 0L728 28Z" fill="#0a0613" stroke="#0a0613"></path><path d="M708 0L721 0L629 -20Z" fill="#29122f" stroke="#29122f"></path><path d="M167 46L106 112L161 104Z" fill="#0a0613" stroke="#0a0613"></path><path d="M315 -23L207 0L260 6Z" fill="#2f1333" stroke="#2f1333"></path><path d="M167 46L158 31L106 112Z" fill="#2f1333" stroke="#2f1333"></path><path d="M31 418L87 423L114 360Z" fill="#3d1139" stroke="#3d1139"></path><path d="M22 491L73 526L95 483Z" fill="#361236" stroke="#361236"></path><path d="M810 101L798 64L787 64Z" fill="#1e1127" stroke="#1e1127"></path><path d="M787 64L799 0L728 28Z" fill="#190f22" stroke="#190f22"></path><path d="M826 55L798 64L810 101Z" fill="#150d1d" stroke="#150d1d"></path><path d="M207 0L158 31L167 46Z" fill="#23122b" stroke="#23122b"></path><path d="M14 289L34 289L0 256Z" fill="#29122f" stroke="#29122f"></path><path d="M56 255L34 289L119 281Z" fill="#29122f" stroke="#29122f"></path><path d="M900 418L822 369L853 469Z" fill="#100a19" stroke="#100a19"></path><path d="M900 418L900 345L822 369Z" fill="#44103c" stroke="#44103c"></path><path d="M863 250L887 228L818 227Z" fill="#150d1d" stroke="#150d1d"></path><path d="M900 345L900 316L822 369Z" fill="#2f1333" stroke="#2f1333"></path><path d="M22 491L95 483L69 453Z" fill="#150d1d" stroke="#150d1d"></path><path d="M149 600L183 675L232 589Z" fill="#29122f" stroke="#29122f"></path><path d="M900 256L887 228L863 250Z" fill="#29122f" stroke="#29122f"></path><path d="M34 289L29 328L119 312Z" fill="#44103c" stroke="#44103c"></path><path d="M900 316L900 278L863 250Z" fill="#361236" stroke="#361236"></path><path d="M47 91L61 164L106 112Z" fill="#0a0613" stroke="#0a0613"></path><path d="M106 112L61 164L148 151Z" fill="#100a19" stroke="#100a19"></path><path d="M115 675L183 675L149 600Z" fill="#100a19" stroke="#100a19"></path><path d="M211 674L183 675L228 685Z" fill="#361236" stroke="#361236"></path><path d="M900 345L905 304L900 316Z" fill="#361236" stroke="#361236"></path><path d="M900 316L905 304L900 278Z" fill="#3d1139" stroke="#3d1139"></path><path d="M29 328L31 418L114 360Z" fill="#3d1139" stroke="#3d1139"></path><path d="M7 454L22 491L69 453Z" fill="#44103c" stroke="#44103c"></path><path d="M900 426L900 418L853 469Z" fill="#150d1d" stroke="#150d1d"></path><path d="M900 345L944 410L905 304Z" fill="#2f1333" stroke="#2f1333"></path><path d="M905 304L900 256L900 278Z" fill="#1e1127" stroke="#1e1127"></path><path d="M900 278L900 256L863 250Z" fill="#0a0613" stroke="#0a0613"></path><path d="M900 450L900 426L853 469Z" fill="#361236" stroke="#361236"></path><path d="M900 418L944 410L900 345Z" fill="#150d1d" stroke="#150d1d"></path><path d="M827 601L868 526L798 560Z" fill="#100a19" stroke="#100a19"></path><path d="M837 514L868 526L853 469Z" fill="#23122b" stroke="#23122b"></path><path d="M803 675L827 601L752 576Z" fill="#44103c" stroke="#44103c"></path><path d="M803 675L752 576L715 658Z" fill="#361236" stroke="#361236"></path><path d="M902 479L900 450L853 469Z" fill="#44103c" stroke="#44103c"></path><path d="M900 426L944 410L900 418Z" fill="#29122f" stroke="#29122f"></path><path d="M207 0L162 0L158 31Z" fill="#0a0613" stroke="#0a0613"></path><path d="M43 71L47 91L106 112Z" fill="#44103c" stroke="#44103c"></path><path d="M315 -23L162 0L207 0Z" fill="#0a0613" stroke="#0a0613"></path><path d="M34 289L14 289L29 328Z" fill="#2f1333" stroke="#2f1333"></path><path d="M29 328L0 371L31 418Z" fill="#361236" stroke="#361236"></path><path d="M0 256L34 289L56 255Z" fill="#0a0613" stroke="#0a0613"></path><path d="M315 -23L158 0L162 0Z" fill="#150d1d" stroke="#150d1d"></path><path d="M162 0L158 0L158 31Z" fill="#1e1127" stroke="#1e1127"></path><path d="M900 78L826 55L810 101Z" fill="#2f1333" stroke="#2f1333"></path><path d="M798 64L799 0L787 64Z" fill="#100a19" stroke="#100a19"></path><path d="M900 178L818 227L887 228Z" fill="#0a0613" stroke="#0a0613"></path><path d="M0 522L65 562L73 526Z" fill="#100a19" stroke="#100a19"></path><path d="M73 526L65 562L130 539Z" fill="#3d1139" stroke="#3d1139"></path><path d="M892 519L902 479L853 469Z" fill="#2f1333" stroke="#2f1333"></path><path d="M900 450L944 410L900 426Z" fill="#1e1127" stroke="#1e1127"></path><path d="M892 519L853 469L868 526Z" fill="#361236" stroke="#361236"></path><path d="M907 132L900 178L900 256Z" fill="#190f22" stroke="#190f22"></path><path d="M900 256L900 178L887 228Z" fill="#2f1333" stroke="#2f1333"></path><path d="M900 526L892 519L868 526Z" fill="#190f22" stroke="#190f22"></path><path d="M14 289L0 371L29 328Z" fill="#0a0613" stroke="#0a0613"></path><path d="M7 454L69 453L49 430Z" fill="#23122b" stroke="#23122b"></path><path d="M0 371L0 379L31 418Z" fill="#2f1333" stroke="#2f1333"></path><path d="M7 454L49 430L31 418Z" fill="#190f22" stroke="#190f22"></path><path d="M0 379L0 403L31 418Z" fill="#1e1127" stroke="#1e1127"></path><path d="M900 178L898 151L785 163Z" fill="#150d1d" stroke="#150d1d"></path><path d="M0 244L0 256L56 255Z" fill="#2f1333" stroke="#2f1333"></path><path d="M14 289L0 256L0 371Z" fill="#3d1139" stroke="#3d1139"></path><path d="M56 255L83 206L0 226Z" fill="#100a19" stroke="#100a19"></path><path d="M0 443L7 454L31 418Z" fill="#150d1d" stroke="#150d1d"></path><path d="M880 612L900 526L868 526Z" fill="#0a0613" stroke="#0a0613"></path><path d="M892 519L900 526L902 479Z" fill="#361236" stroke="#361236"></path><path d="M0 403L0 429L31 418Z" fill="#23122b" stroke="#23122b"></path><path d="M838 0L799 0L826 55Z" fill="#44103c" stroke="#44103c"></path><path d="M826 55L799 0L798 64Z" fill="#44103c" stroke="#44103c"></path><path d="M721 0L799 0L629 -20Z" fill="#100a19" stroke="#100a19"></path><path d="M0 226L83 206L61 164Z" fill="#3d1139" stroke="#3d1139"></path><path d="M0 429L0 443L31 418Z" fill="#29122f" stroke="#29122f"></path><path d="M7 454L-5 450L22 491Z" fill="#2f1333" stroke="#2f1333"></path><path d="M691 675L803 675L715 658Z" fill="#23122b" stroke="#23122b"></path><path d="M827 601L880 612L868 526Z" fill="#44103c" stroke="#44103c"></path><path d="M900 684L803 675L691 675Z" fill="#23122b" stroke="#23122b"></path><path d="M18 140L0 226L61 164Z" fill="#29122f" stroke="#29122f"></path><path d="M0 403L-5 450L0 429Z" fill="#23122b" stroke="#23122b"></path><path d="M0 429L-5 450L0 443Z" fill="#1e1127" stroke="#1e1127"></path><path d="M0 443L-5 450L7 454Z" fill="#0a0613" stroke="#0a0613"></path><path d="M111 675L149 600L86 669Z" fill="#29122f" stroke="#29122f"></path><path d="M0 379L-5 450L0 403Z" fill="#0a0613" stroke="#0a0613"></path><path d="M0 371L-5 450L0 379Z" fill="#44103c" stroke="#44103c"></path><path d="M-44 155L-5 450L0 371Z" fill="#44103c" stroke="#44103c"></path><path d="M-44 155L0 371L0 256Z" fill="#29122f" stroke="#29122f"></path><path d="M-44 155L0 256L0 244Z" fill="#2f1333" stroke="#2f1333"></path><path d="M900 526L944 410L902 479Z" fill="#44103c" stroke="#44103c"></path><path d="M902 479L944 410L900 450Z" fill="#29122f" stroke="#29122f"></path><path d="M905 304L944 410L900 256Z" fill="#361236" stroke="#361236"></path><path d="M900 178L907 132L898 151Z" fill="#150d1d" stroke="#150d1d"></path><path d="M101 0L106 112L158 31Z" fill="#361236" stroke="#361236"></path><path d="M183 675L115 675L228 685Z" fill="#1e1127" stroke="#1e1127"></path><path d="M111 675L115 675L149 600Z" fill="#23122b" stroke="#23122b"></path><path d="M149 600L65 562L86 669Z" fill="#23122b" stroke="#23122b"></path><path d="M898 151L900 110L810 101Z" fill="#2f1333" stroke="#2f1333"></path><path d="M944 410L907 132L900 256Z" fill="#361236" stroke="#361236"></path><path d="M47 91L18 140L61 164Z" fill="#23122b" stroke="#23122b"></path><path d="M0 522L73 526L22 491Z" fill="#150d1d" stroke="#150d1d"></path><path d="M115 675L111 675L228 685Z" fill="#150d1d" stroke="#150d1d"></path><path d="M907 132L900 110L898 151Z" fill="#361236" stroke="#361236"></path><path d="M315 -23L101 0L158 0Z" fill="#44103c" stroke="#44103c"></path><path d="M158 0L101 0L158 31Z" fill="#2f1333" stroke="#2f1333"></path><path d="M870 675L880 612L827 601Z" fill="#100a19" stroke="#100a19"></path><path d="M900 526L899 635L944 410Z" fill="#150d1d" stroke="#150d1d"></path><path d="M101 0L43 71L106 112Z" fill="#23122b" stroke="#23122b"></path><path d="M47 91L0 115L18 140Z" fill="#0a0613" stroke="#0a0613"></path><path d="M-5 450L0 522L22 491Z" fill="#29122f" stroke="#29122f"></path><path d="M900 59L838 0L826 55Z" fill="#0a0613" stroke="#0a0613"></path><path d="M799 0L838 0L577 -36Z" fill="#100a19" stroke="#100a19"></path><path d="M56 675L86 669L65 562Z" fill="#361236" stroke="#361236"></path><path d="M907 132L900 78L900 110Z" fill="#23122b" stroke="#23122b"></path><path d="M900 110L900 78L810 101Z" fill="#100a19" stroke="#100a19"></path><path d="M900 59L900 78L936 0Z" fill="#190f22" stroke="#190f22"></path><path d="M-21 637L0 557L-40 633Z" fill="#150d1d" stroke="#150d1d"></path><path d="M0 522L0 557L65 562Z" fill="#3d1139" stroke="#3d1139"></path><path d="M0 63L47 91L43 71Z" fill="#361236" stroke="#361236"></path><path d="M0 63L0 115L47 91Z" fill="#2f1333" stroke="#2f1333"></path><path d="M18 140L-44 155L0 226Z" fill="#44103c" stroke="#44103c"></path><path d="M0 226L-44 155L0 244Z" fill="#361236" stroke="#361236"></path><path d="M900 0L900 59L936 0Z" fill="#3d1139" stroke="#3d1139"></path><path d="M900 78L900 59L826 55Z" fill="#3d1139" stroke="#3d1139"></path><path d="M870 675L899 635L880 612Z" fill="#100a19" stroke="#100a19"></path><path d="M880 612L899 635L900 526Z" fill="#2f1333" stroke="#2f1333"></path><path d="M900 684L870 675L803 675Z" fill="#44103c" stroke="#44103c"></path><path d="M803 675L870 675L827 601Z" fill="#44103c" stroke="#44103c"></path><path d="M111 675L0 682L228 685Z" fill="#23122b" stroke="#23122b"></path><path d="M86 669L56 675L111 675Z" fill="#23122b" stroke="#23122b"></path><path d="M-21 637L56 675L65 562Z" fill="#1e1127" stroke="#1e1127"></path><path d="M315 -23L49 0L101 0Z" fill="#2f1333" stroke="#2f1333"></path><path d="M101 0L49 0L43 71Z" fill="#361236" stroke="#361236"></path><path d="M0 51L0 63L43 71Z" fill="#361236" stroke="#361236"></path><path d="M0 115L-44 155L18 140Z" fill="#0a0613" stroke="#0a0613"></path><path d="M-37 63L-44 155L0 115Z" fill="#190f22" stroke="#190f22"></path><path d="M-40 633L0 557L0 522Z" fill="#44103c" stroke="#44103c"></path><path d="M870 675L900 662L899 635Z" fill="#361236" stroke="#361236"></path><path d="M899 635L900 662L944 410Z" fill="#2f1333" stroke="#2f1333"></path><path d="M49 0L0 51L43 71Z" fill="#2f1333" stroke="#2f1333"></path><path d="M0 63L-37 63L0 115Z" fill="#3d1139" stroke="#3d1139"></path><path d="M936 0L900 78L907 132Z" fill="#29122f" stroke="#29122f"></path><path d="M900 59L900 0L838 0Z" fill="#100a19" stroke="#100a19"></path><path d="M838 0L900 0L577 -36Z" fill="#2f1333" stroke="#2f1333"></path><path d="M900 684L900 675L870 675Z" fill="#100a19" stroke="#100a19"></path><path d="M870 675L900 675L900 662Z" fill="#29122f" stroke="#29122f"></path><path d="M900 662L900 675L944 410Z" fill="#23122b" stroke="#23122b"></path><path d="M228 685L900 684L547 675Z" fill="#44103c" stroke="#44103c"></path><path d="M900 675L900 684L944 410Z" fill="#2f1333" stroke="#2f1333"></path><path d="M49 0L0 13L0 51Z" fill="#2f1333" stroke="#2f1333"></path><path d="M0 51L-37 63L0 63Z" fill="#0a0613" stroke="#0a0613"></path><path d="M-40 633L0 522L-5 450Z" fill="#2f1333" stroke="#2f1333"></path><path d="M0 557L-21 637L65 562Z" fill="#2f1333" stroke="#2f1333"></path><path d="M0 13L-37 63L0 51Z" fill="#0a0613" stroke="#0a0613"></path><path d="M49 0L0 0L0 13Z" fill="#1e1127" stroke="#1e1127"></path><path d="M0 13L0 0L-37 63Z" fill="#1e1127" stroke="#1e1127"></path><path d="M315 -23L0 0L49 0Z" fill="#361236" stroke="#361236"></path><path d="M-21 637L0 675L56 675Z" fill="#3d1139" stroke="#3d1139"></path><path d="M56 675L0 682L111 675Z" fill="#44103c" stroke="#44103c"></path><path d="M944 410L936 0L907 132Z" fill="#3d1139" stroke="#3d1139"></path><path d="M900 0L936 0L577 -36Z" fill="#29122f" stroke="#29122f"></path><path d="M0 675L0 682L56 675Z" fill="#3d1139" stroke="#3d1139"></path><path d="M-40 633L0 682L0 675Z" fill="#44103c" stroke="#44103c"></path><path d="M-44 155L-40 633L-5 450Z" fill="#3d1139" stroke="#3d1139"></path><path d="M-21 637L-40 633L0 675Z" fill="#44103c" stroke="#44103c"></path></g></svg>